<?xml version="1.0" standalone="no"?>
<!DOCTYPE svg PUBLIC "-//W3C//DTD SVG 20010904//EN"
 "http://www.w3.org/TR/2001/REC-SVG-20010904/DTD/svg10.dtd">
<svg version="1.0" xmlns="http://www.w3.org/2000/svg"
 width="200.000000pt" height="100.000000pt" viewBox="0 0 200.000000 100.000000"
 preserveAspectRatio="xMidYMid meet">
<metadata>
Created by potrace 1.15, written by Peter Selinger 2001-2017
</metadata>
<g transform="translate(0.000000,100.000000) scale(0.100000,-0.100000)"
fill="#000000" stroke="none">
<path d="M762 770 c-106 -121 -192 -222 -192 -225 0 -3 44 -5 98 -5 l97 0 97
113 98 112 0 113 c0 61 -2 112 -3 112 -2 0 -90 -99 -195 -220z"/>
<path d="M230 296 c0 -85 0 -86 25 -86 24 0 26 3 20 38 -5 36 4 26 19 -20 4
-13 16 -18 41 -18 l35 0 0 85 c0 84 0 85 -25 85 -23 0 -25 -4 -26 -42 l-1 -43
-12 40 c-10 35 -16 40 -44 43 l-32 3 0 -85z"/>
<path d="M520 295 l0 -85 55 0 c48 0 55 2 55 20 0 15 -7 20 -25 20 -16 0 -25
6 -25 15 0 8 9 15 20 15 11 0 20 7 20 15 0 8 -9 15 -20 15 -11 0 -20 7 -20 15
0 9 9 15 25 15 18 0 25 5 25 20 0 18 -7 20 -55 20 l-55 0 0 -85z"/>
<path d="M650 295 c0 -77 2 -85 19 -85 16 0 21 8 24 43 l3 42 8 -33 c7 -28 13
-33 35 -30 20 2 27 10 32 33 6 27 7 26 8 -12 1 -36 4 -43 21 -43 18 0 20 7 20
85 l0 85 -35 0 c-34 0 -35 -1 -35 -39 0 -22 -4 -43 -10 -46 -6 -4 -10 6 -10
24 0 49 -9 61 -46 61 l-34 0 0 -85z"/>
<path d="M840 295 l0 -85 51 0 c28 0 59 5 70 10 13 7 19 7 19 0 0 -5 11 -10
25 -10 16 0 25 6 25 15 0 9 9 15 25 15 16 0 25 -6 25 -15 0 -9 9 -15 25 -15
30 0 30 3 3 96 -21 72 -22 74 -53 74 -31 0 -33 -3 -49 -61 -16 -55 -19 -59
-31 -42 -8 11 -11 30 -8 47 8 39 -17 56 -79 56 l-48 0 0 -85z"/>
<path d="M1340 308 c-12 -40 -23 -79 -25 -85 -3 -9 6 -13 25 -13 20 0 30 5 30
15 0 8 9 15 20 15 11 0 23 -7 26 -15 7 -17 54 -21 54 -4 0 6 -10 44 -22 85
-21 73 -22 74 -54 74 -33 0 -34 -1 -54 -72z"/>
<path d="M1600 314 c0 -90 9 -104 68 -104 27 0 53 5 60 12 7 7 12 42 12 85 0
71 -1 73 -25 73 -23 0 -24 -3 -27 -67 -2 -53 -6 -68 -18 -68 -12 0 -16 15 -18
68 -3 64 -4 67 -27 67 -24 0 -25 -3 -25 -66z"/>
</g>
</svg>
